<?xml version="1.0" encoding="iso-8859-1"?>
<!-- Generator: Adobe Illustrator 16.0.0, SVG Export Plug-In . SVG Version: 6.00 Build 0)  -->
<!DOCTYPE svg PUBLIC "-//W3C//DTD SVG 1.1//EN" "http://www.w3.org/Graphics/SVG/1.1/DTD/svg11.dtd">
<svg version="1.1" id="Capa_1" xmlns="http://www.w3.org/2000/svg" xmlns:xlink="http://www.w3.org/1999/xlink" x="0px" y="0px"
	 width="352.386px" height="352.386px" viewBox="0 0 352.386 352.386" style="enable-background:new 0 0 352.386 352.386;"
	 xml:space="preserve">
<g>
	<path d="M83.89,29.187c-17.432,0-31.609,14.187-31.609,31.612v259.972c0,17.438,14.177,31.615,31.609,31.615h184.599
		c17.438,0,31.615-14.178,31.615-31.615V60.793c0-17.426-14.177-31.612-31.615-31.612h-19.575c-1.388,0-2.57,0.192-3.873,0.291
		c0.174-1.138,0.306-2.294,0.306-3.479C245.347,11.172,231.752,0,213.731,0h-75.078c-18.023,0-31.612,11.166-31.612,25.992
		c0,1.117,0.159,2.174,0.315,3.245c-0.79-0.03-1.543-0.057-2.216-0.057H83.89V29.187z M157.74,34.23h36.891
		c13.583,0,24.595,6.536,24.595,14.604s-11.012,14.604-24.595,14.604H157.74c-13.583,0-24.596-6.537-24.596-14.604
		S144.157,34.23,157.74,34.23z M119.18,77.696V80.2c0,17.426,14.187,31.612,31.612,31.612h52.467
		c17.432,0,31.615-14.187,31.615-31.612v-3.267c6.894-1.246,12.117-3.972,15.804-7.521h9.188v242.729H92.513V69.419h10.221
		c0.03,0.039,0.06,0.075,0.096,0.104C107.546,74.376,113.719,76.669,119.18,77.696z"/>
	<path d="M231.812,259.203h-56.812c-5.098,0-9.224,4.132-9.224,9.224s4.125,9.223,9.224,9.223h56.812
		c5.104,0,9.223-4.131,9.223-9.223S236.904,259.203,231.812,259.203z"/>
	<path d="M119.087,159.28h112.726c5.104,0,9.223-4.131,9.223-9.223s-4.119-9.223-9.223-9.223H119.087
		c-5.098,0-9.223,4.131-9.223,9.223S113.995,159.28,119.087,159.28z"/>
	<path d="M119.087,192.334h112.726c5.104,0,9.223-4.132,9.223-9.224c0-5.095-4.119-9.227-9.223-9.227H119.087
		c-5.098,0-9.223,4.132-9.223,9.227C109.864,188.202,113.995,192.334,119.087,192.334z"/>
	<path d="M119.087,225.384h112.726c5.104,0,9.223-4.131,9.223-9.223s-4.119-9.224-9.223-9.224H119.087
		c-5.098,0-9.223,4.132-9.223,9.224S113.995,225.384,119.087,225.384z"/>
</g>
<g>
</g>
<g>
</g>
<g>
</g>
<g>
</g>
<g>
</g>
<g>
</g>
<g>
</g>
<g>
</g>
<g>
</g>
<g>
</g>
<g>
</g>
<g>
</g>
<g>
</g>
<g>
</g>
<g>
</g>
</svg>
