<?xml version="1.0" encoding="iso-8859-1"?>
<!-- Generator: Adobe Illustrator 19.0.0, SVG Export Plug-In . SVG Version: 6.00 Build 0)  -->
<svg version="1.1" id="Layer_1" xmlns="http://www.w3.org/2000/svg" xmlns:xlink="http://www.w3.org/1999/xlink" x="0px" y="0px"
	 viewBox="0 0 512 512" style="enable-background:new 0 0 512 512;" xml:space="preserve">
<g>
	<g>
		<path d="M463.865,105.366H48.129C21.59,105.366,0,126.956,0,153.495v302.894c0,26.538,21.59,48.129,48.129,48.129h415.737
			c26.539,0,48.129-21.591,48.129-48.129V153.495C511.994,126.956,490.404,105.366,463.865,105.366z M481.577,456.389
			c0,9.766-7.946,17.712-17.712,17.712H48.129c-9.766,0-17.712-7.946-17.712-17.712V153.495c0-9.767,7.946-17.712,17.712-17.712
			h415.737c9.766,0,17.712,7.945,17.712,17.712V456.389z"/>
	</g>
</g>
<g>
	<g>
		<path d="M108.166,166.504V443.38h342.69V166.504H108.166z M420.439,412.963H138.583V196.921h281.856V412.963z"/>
	</g>
</g>
<g>
	<g>
		<path d="M69.292,280.328c-13.573,0-24.614,11.042-24.614,24.614c0,13.572,11.042,24.613,24.614,24.613
			c13.572,0,24.614-11.042,24.614-24.613C93.906,291.369,82.865,280.328,69.292,280.328z M69.292,310.745
			c-3.199,0-5.802-2.603-5.802-5.802c0-3.2,2.603-5.804,5.802-5.804c3.2,0,5.803,2.603,5.803,5.804
			C75.093,308.141,72.49,310.745,69.292,310.745z"/>
	</g>
</g>
<g>
	<g>
		<rect x="48.442" y="231.645" width="41.702" height="30.417"/>
	</g>
</g>
<g>
	<g>
		<rect x="48.442" y="184.61" width="41.702" height="30.417"/>
	</g>
</g>
<g>
	<g>
		<rect x="48.442" y="394.851" width="41.702" height="30.417"/>
	</g>
</g>
<g>
	<g>
		<rect x="48.442" y="347.827" width="41.702" height="30.417"/>
	</g>
</g>
<g>
	<g>
		<path d="M463.076,7.483H44.381c-19.814,0-35.932,16.119-35.932,35.931c0,19.815,16.119,35.934,35.932,35.934h418.694L512,43.414
			L463.076,7.483z M57.023,48.932H44.381c-3.042,0-5.516-2.475-5.516-5.517c0-3.041,2.474-5.516,5.516-5.516h12.641V48.932z
			 M453.106,48.932H87.439V37.899h365.667l7.511,5.517L453.106,48.932z"/>
	</g>
</g>
<g>
</g>
<g>
</g>
<g>
</g>
<g>
</g>
<g>
</g>
<g>
</g>
<g>
</g>
<g>
</g>
<g>
</g>
<g>
</g>
<g>
</g>
<g>
</g>
<g>
</g>
<g>
</g>
<g>
</g>
</svg>
